# xmcd
#
# Track frame offsets:
#	150
#	18601
#	35663
#	54630
#	76647
#	93335
#	114409
#	128477
#	143979
#	171165
#	225909
#	244313
#
# Disc length: 3448 seconds
# Revision: 0
# Processed by: cddbd v1.5.2PL0 Copyright (c) Steve Scherf et al.
# Submitted via: dBpowerAMP V12.0
#
DISCID=920d760c
DTITLE=Bluenotes - Live in the Heat
DYEAR=2014
DGENRE=Rock A-C
TTITLE0=In 1982
TTITLE1=My Blues
TTITLE2=We Can't Get enough
TTITLE3=No Chance to Hyde
TTITLE4=Blues Royal
TTITLE5=Three Simple words
TTITLE6=Rock 'til I roll
TTITLE7=I Hate Misunderstandings
TTITLE8=Sexy Teacher
TTITLE9=Between Friends - We all Talk too Much
TTITLE10=Blue Blue Night
TTITLE11=Old House
EXTD=
EXTT0=
EXTT1=
EXTT2=
EXTT3=
EXTT4=
EXTT5=
EXTT6=
EXTT7=
EXTT8=
EXTT9=
EXTT10=
EXTT11=
PLAYORDER=
